<?xml version="1.0" encoding="utf-8"?>
<!-- Generator: Adobe Illustrator 25.4.1, SVG Export Plug-In . SVG Version: 6.00 Build 0)  -->
<svg version="1.1" xmlns="http://www.w3.org/2000/svg" xmlns:xlink="http://www.w3.org/1999/xlink" x="0px" y="0px"
	 viewBox="0 0 595.28 841.89" style="enable-background:new 0 0 595.28 841.89;" xml:space="preserve">
<style type="text/css">
	.st0{fill:#FFFFFF;}
	.st1{fill:none;}
	.st2{font-family:'AcuminProWide-ExtraLightItalic';}
	.st3{font-size:20px;}
	.st4{letter-spacing:4;}
</style>
<g id="Layer_2">
	<path d="M377.22,280.65H198.68c-11.18,0-20.24-9.07-20.24-20.26V136.47c0-11.19,9.06-20.26,20.24-20.26h178.54
		c11.18,0,20.24,9.07,20.24,20.26v123.92C397.46,271.57,388.4,280.65,377.22,280.65z"/>
</g>
<g id="Layer_3">
</g>
<g id="Layer_1">
	<g>
		<path class="st0" d="M238.31,177.59h46.83v47.91c0,3.41-0.17,6.33-0.5,8.79c-0.34,2.45-1.08,4.42-2.23,5.91
			c-1.15,1.49-2.86,2.58-5.11,3.27c-2.26,0.69-5.26,1.04-9.01,1.04h-62.54c-3.75,0-6.75-0.35-9.01-1.04
			c-2.26-0.69-3.96-1.78-5.12-3.27c-1.15-1.49-1.9-3.46-2.23-5.91c-0.34-2.45-0.5-5.38-0.5-8.79v-79.85c0-3.41,0.17-6.31,0.5-8.7
			c0.34-2.4,1.08-4.39,2.23-5.99c1.15-1.49,2.86-2.58,5.12-3.28c2.26-0.69,5.26-1.04,9.01-1.04h62.54c3.75,0,6.75,0.35,9.01,1.04
			c2.26,0.7,3.96,1.78,5.11,3.28c1.15,1.6,1.9,3.59,2.23,5.99c0.34,2.4,0.5,5.3,0.5,8.7v22.68h-30.12v-22.04
			c0-1.49-0.22-2.53-0.65-3.11c-0.44-0.58-1.33-0.88-2.68-0.88h-29.37c-1.35,0-2.25,0.29-2.68,0.88c-0.43,0.59-0.65,1.62-0.65,3.11
			v78.57c0,1.49,0.22,2.53,0.65,3.11c0.43,0.59,1.33,0.88,2.68,0.88h29.37c1.35,0,2.24-0.29,2.68-0.88
			c0.43-0.58,0.65-1.62,0.65-3.11V191.2h-16.72V177.59z"/>
		<path class="st0" d="M285.48,126.65l84.68,0c3.46,0,6.22,0.32,8.28,0.96c2.06,0.64,3.63,1.65,4.68,3.03
			c1.06,1.49,1.73,3.38,2.02,5.67c0.29,2.29,0.43,5.03,0.43,8.22v26.99c0,2.13-0.22,3.83-0.65,5.11c-0.43,1.28-0.99,2.29-1.66,3.03
			c-0.77,0.85-1.63,1.49-2.6,1.92l-3,1.33c-0.01,0-0.01,0.01,0,0.01c1.01,0.41,2.05,0.89,3.14,1.45c1.15,0.59,2.21,1.3,3.17,2.15
			c0,0,0,0,0,0c0.86,0.96,1.59,2.13,2.16,3.51c0.58,1.39,0.86,3.09,0.86,5.11v31.46c0,3.2-0.14,5.93-0.43,8.22
			c-0.29,2.29-0.96,4.18-2.02,5.67c-1.15,1.38-2.76,2.4-4.83,3.03c-2.07,0.64-4.83,0.96-8.28,0.96l-85.98,0.14
			c1.04-0.94,2.82-2.8,4.03-5.68c1.12-2.67,1.27-5.05,1.25-6.43c0-31.16,0-62.33,0-93.49c0.04-1.39-0.07-3.84-1.2-6.59
			C288.34,129.49,286.53,127.6,285.48,126.65z M320.88,142.3v35.29h34.58v-29.07c0-2.45-0.38-4.1-1.15-4.95
			c-0.77-0.85-2.26-1.28-4.47-1.28H320.88z M320.88,191.2v37.66h30.41c2.21,0,3.7-0.42,4.47-1.28c0.77-0.85,1.15-2.5,1.15-4.95
			V191.2H320.88z"/>
	</g>
	<path d="M283.07,133.57"/>
	<path d="M291.83,230.7"/>
	<path d="M299.36,238.65"/>
	<rect x="189.02" y="248.23" class="st1" width="199.88" height="21.13"/>
	<text transform="matrix(1 0 0 1 189.0191 263.3549)" class="st0 st2 st3 st4">MANAGEMENT</text>
</g>
</svg>
